<svg xmlns="http://www.w3.org/2000/svg" viewBox="-120.48 -136.2 245.45 265.08" width="245.45" height="265.08" role="img" aria-label="Bintang lima bersudut lima, dengan ujung-ujungnya diberi nama A, B, C, D, dan E. Kelima sudut di ujung bintang ditandai busur kecil, dan besarnya jelas tidak sama satu sama lain"><title>Bintang lima bersudut lima, dengan ujung-ujungnya diberi nama A, B, C, D, dan E. Kelima sudut di ujung bintang ditandai busur kecil, dan besarnya jelas tidak sama satu sama lain</title><style>svg{--tinta:#16233b;--bantu:#8894a8;--tekan:#be3a2b;--isi:#16233b}@media(prefers-color-scheme:dark){svg{--tinta:#e9edf3;--bantu:#7f8da0;--tekan:#ee7466;--isi:#e9edf3}}.g{fill:none;stroke:var(--tinta);stroke-width:1.6;stroke-linecap:round;stroke-linejoin:round}.g.bantu{stroke:var(--bantu);stroke-width:1.2}.g.tekan{stroke:var(--tekan);stroke-width:2}.g.putus{stroke-dasharray:5 4}.n{fill:var(--tinta);stroke:none}.n.bantu{fill:var(--bantu)}.n.tekan{fill:var(--tekan)}.a{fill:var(--isi);opacity:.09;stroke:none}.a.tekan{fill:var(--tekan);opacity:.14}.t{font-family:Georgia,'Times New Roman',serif;font-style:italic;font-size:15px;fill:var(--tinta);stroke:none;text-anchor:middle;dominant-baseline:central}.t.bantu{fill:var(--bantu);font-size:13px}.t.tekan{fill:var(--tekan)}.t.ukur{font-style:normal;font-size:13px}</style><polygon class="g" points="102.24,-37.21 -98.61,-45.98 37.21,102.24 -11.37,-108.2 -92.27,57.66"/><path class="g" d="M-20.14 -90.23A20 20 0 0 0 -6.87 -88.72"/><path class="g" d="M-85.09 -31.24A20 20 0 0 0 -78.63 -45.11"/><path class="g" d="M-74.29 48.89A20 20 0 0 0 -83.5 39.68"/><path class="g" d="M32.71 82.75A20 20 0 0 0 23.7 87.49"/><path class="g" d="M82.26 -38.08A20 20 0 0 0 84.26 -28.44"/><circle class="n" cx="-11.37" cy="-108.2" r="2.6"/><text class="t" x="-11.2" y="-123.2">A</text><circle class="n" cx="-98.61" cy="-45.98" r="2.6"/><text class="t" x="-112.23" y="-52.26">B</text><circle class="n" cx="-92.27" cy="57.66" r="2.6"/><text class="t" x="-103.97" y="67.04">C</text><circle class="n" cx="37.21" cy="102.24" r="2.6"/><text class="t" x="43.46" y="115.87">D</text><circle class="n" cx="102.24" cy="-37.21" r="2.6"/><text class="t" x="116.72" y="-41.11">E</text></svg>
