<svg xmlns="http://www.w3.org/2000/svg" viewBox="-23.25 -165.6 283.43 330.77" width="283.43" height="330.77" role="img" aria-label="Segitiga ABC dengan M titik tengah sisi BC. Ruas AM diperpanjang lurus melewati M sampai titik D, sedemikian sehingga MD sama panjang dengan AM. Titik D dihubungkan ke B, sehingga terbentuk segitiga ABD yang memuat segitiga ABC"><title>Segitiga ABC dengan M titik tengah sisi BC. Ruas AM diperpanjang lurus melewati M sampai titik D, sedemikian sehingga MD sama panjang dengan AM. Titik D dihubungkan ke B, sehingga terbentuk segitiga ABD yang memuat segitiga ABC</title><style>svg{--tinta:#16233b;--bantu:#8894a8;--tekan:#be3a2b;--isi:#16233b}@media(prefers-color-scheme:dark){svg{--tinta:#e9edf3;--bantu:#7f8da0;--tekan:#ee7466;--isi:#e9edf3}}.g{fill:none;stroke:var(--tinta);stroke-width:1.6;stroke-linecap:round;stroke-linejoin:round}.g.bantu{stroke:var(--bantu);stroke-width:1.2}.g.tekan{stroke:var(--tekan);stroke-width:2}.g.putus{stroke-dasharray:5 4}.n{fill:var(--tinta);stroke:none}.n.bantu{fill:var(--bantu)}.n.tekan{fill:var(--tekan)}.a{fill:var(--isi);opacity:.09;stroke:none}.a.tekan{fill:var(--tekan);opacity:.14}.t{font-family:Georgia,'Times New Roman',serif;font-style:italic;font-size:15px;fill:var(--tinta);stroke:none;text-anchor:middle;dominant-baseline:central}.t.bantu{fill:var(--bantu);font-size:13px}.t.tekan{fill:var(--tekan)}.t.ukur{font-style:normal;font-size:13px}</style><polygon class="g" points="65.57,-138.24 0,0 238,0"/><line class="g bantu" x1="65.57" y1="-138.24" x2="172.43" y2="138.24"/><line class="g" x1="0" y1="0" x2="172.43" y2="138.24"/><line class="g bantu putus" x1="238" y1="0" x2="172.43" y2="138.24"/><line class="g" x1="59.5" y1="-7" x2="59.5" y2="7"/><line class="g" x1="178.5" y1="-7" x2="178.5" y2="7"/><line class="g" x1="98.09" y1="-73.51" x2="85.04" y2="-68.46"/><line class="g" x1="99.54" y1="-69.78" x2="86.48" y2="-64.73"/><line class="g" x1="151.52" y1="64.73" x2="138.46" y2="69.78"/><line class="g" x1="152.96" y1="68.46" x2="139.91" y2="73.51"/><circle class="n" cx="65.57" cy="-138.24" r="2.6"/><text class="t" x="61.26" y="-152.6">A</text><circle class="n" cx="0" cy="0" r="2.6"/><text class="t" x="-15" y="0">B</text><circle class="n" cx="238" cy="0" r="2.6"/><text class="t" x="251.93" y="-5.57">C</text><circle class="n" cx="119" cy="0" r="2.6"/><text class="t" x="119" y="-15">M</text><circle class="n" cx="172.43" cy="138.24" r="2.6"/><text class="t" x="178" y="152.16">D</text></svg>
